<svg xmlns="http://www.w3.org/2000/svg" xmlns:xlink="http://www.w3.org/1999/xlink" width="500" zoomAndPan="magnify" viewBox="0 0 375 374.999991" height="500" preserveAspectRatio="xMidYMid meet" version="1.0"><defs><filter x="0%" y="0%" width="100%" height="100%" id="7bbb548397"><feColorMatrix values="0 0 0 0 1 0 0 0 0 1 0 0 0 0 1 0 0 0 1 0" color-interpolation-filters="sRGB"/></filter><g/><mask id="2c865166c0"><g filter="url(#7bbb548397)"><rect x="-37.5" width="450" fill="#000000" y="-37.499999" height="449.999989" fill-opacity="0.72"/></g></mask><clipPath id="41d3edf10b"><path d="M 0.519531 0 L 123.640625 0 L 123.640625 321.121094 L 0.519531 321.121094 Z M 0.519531 0 " clip-rule="nonzero"/></clipPath><clipPath id="6f591d592b"><rect x="0" width="124" y="0" height="322"/></clipPath><clipPath id="29d6ac3269"><rect x="0" width="124" y="0" height="322"/></clipPath><mask id="5084ba3c64"><g filter="url(#7bbb548397)"><rect x="-37.5" width="450" fill="#000000" y="-37.499999" height="449.999989" fill-opacity="0.72"/></g></mask><clipPath id="802d71bdbe"><path d="M 0.878906 0.238281 L 155.199219 0.238281 L 155.199219 321 L 0.878906 321 Z M 0.878906 0.238281 " clip-rule="nonzero"/></clipPath><clipPath id="3c53f4b35b"><rect x="0" width="156" y="0" height="321"/></clipPath><clipPath id="e84656f9a0"><rect x="0" width="156" y="0" height="321"/></clipPath></defs><rect x="-37.5" width="450" fill="#ffffff" y="-37.499999" height="449.999989" fill-opacity="1"/><rect x="-37.5" width="450" fill="#ffffff" y="-37.499999" height="449.999989" fill-opacity="1"/><g mask="url(#2c865166c0)"><g transform="matrix(1, 0, 0, 1, 125, 0)"><g clip-path="url(#29d6ac3269)"><g clip-path="url(#41d3edf10b)"><g transform="matrix(1, 0, 0, 1, 0.000000000000014211, 0)"><g clip-path="url(#6f591d592b)"><g fill="#000000" fill-opacity="1"><g transform="translate(0.928464, 206.655911)"><g><path d="M 19.375 16.328125 C 13.28125 16.328125 8.664062 15.082031 5.53125 12.59375 C 2.394531 10.101562 1.195312 6.828125 1.9375 2.765625 C 2.863281 -1.847656 6.179688 -6.828125 11.890625 -12.171875 C 17.609375 -17.523438 25.175781 -22.046875 34.59375 -25.734375 C 39.019531 -31.453125 43.8125 -37.492188 48.96875 -43.859375 C 54.132812 -50.222656 59.300781 -56.3125 64.46875 -62.125 C 69.632812 -67.9375 74.429688 -72.867188 78.859375 -76.921875 C 79.222656 -77.296875 79.59375 -77.484375 79.96875 -77.484375 C 81.070312 -77.484375 81.625 -76.925781 81.625 -75.8125 C 81.625 -75.445312 81.441406 -75.078125 81.078125 -74.703125 C 74.984375 -68.984375 68.25 -61.742188 60.875 -52.984375 C 53.5 -44.222656 46.582031 -35.785156 40.125 -27.671875 C 44.550781 -29.148438 49.300781 -30.253906 54.375 -30.984375 C 59.445312 -31.722656 64.84375 -32.09375 70.5625 -32.09375 C 73.695312 -32.09375 76.785156 -32 79.828125 -31.8125 C 82.867188 -31.632812 85.867188 -31.269531 88.828125 -30.71875 C 89.742188 -30.34375 90.203125 -29.785156 90.203125 -29.046875 C 90.203125 -27.941406 89.648438 -27.390625 88.546875 -27.390625 L 88.265625 -27.390625 C 82.546875 -28.492188 76.644531 -29.046875 70.5625 -29.046875 C 64.289062 -29.046875 58.296875 -28.539062 52.578125 -27.53125 C 46.859375 -26.519531 41.597656 -25.09375 36.796875 -23.25 C 32.554688 -17.707031 28.914062 -12.769531 25.875 -8.4375 C 22.832031 -4.101562 20.847656 -1.015625 19.921875 0.828125 C 19.367188 1.378906 18.910156 1.65625 18.546875 1.65625 C 17.429688 1.65625 16.875 1.101562 16.875 0 C 16.875 -0.363281 16.96875 -0.640625 17.15625 -0.828125 C 18.082031 -2.304688 19.742188 -4.84375 22.140625 -8.4375 C 24.535156 -12.03125 27.484375 -16.132812 30.984375 -20.75 C 23.421875 -17.25 17.378906 -13.285156 12.859375 -8.859375 C 8.347656 -4.429688 5.722656 -0.367188 4.984375 3.328125 C 3.878906 9.773438 8.675781 13 19.375 13 C 29.332031 13 39.566406 10.597656 50.078125 5.796875 C 60.597656 1.003906 70.515625 -5.398438 79.828125 -13.421875 C 89.140625 -21.441406 97.023438 -30.382812 103.484375 -40.25 C 109.941406 -50.125 114 -60.132812 115.65625 -70.28125 C 116.945312 -76.550781 115.882812 -81.4375 112.46875 -84.9375 C 109.0625 -88.445312 103.851562 -90.203125 96.84375 -90.203125 C 88.539062 -90.203125 80.238281 -88.632812 71.9375 -85.5 C 63.632812 -82.363281 55.796875 -78.347656 48.421875 -73.453125 C 41.046875 -68.566406 34.40625 -63.3125 28.5 -57.6875 C 22.59375 -52.0625 17.984375 -46.757812 14.671875 -41.78125 C 14.484375 -41.226562 14.019531 -40.953125 13.28125 -40.953125 C 12.175781 -40.953125 11.625 -41.503906 11.625 -42.609375 C 11.625 -42.796875 11.664062 -42.976562 11.75 -43.15625 C 11.84375 -43.34375 11.890625 -43.4375 11.890625 -43.4375 C 15.398438 -48.414062 20.148438 -53.8125 26.140625 -59.625 C 32.140625 -65.4375 38.96875 -70.878906 46.625 -75.953125 C 54.28125 -81.023438 62.441406 -85.175781 71.109375 -88.40625 C 79.785156 -91.632812 88.363281 -93.25 96.84375 -93.25 C 104.957031 -93.25 111 -91.171875 114.96875 -87.015625 C 118.9375 -82.867188 120.273438 -77.109375 118.984375 -69.734375 C 117.140625 -59.210938 112.894531 -48.878906 106.25 -38.734375 C 99.613281 -28.585938 91.5 -19.363281 81.90625 -11.0625 C 72.3125 -2.757812 62.070312 3.878906 51.1875 8.859375 C 40.300781 13.835938 29.695312 16.328125 19.375 16.328125 Z M 19.375 16.328125 "/></g></g></g></g></g></g></g></g></g><g mask="url(#5084ba3c64)"><g transform="matrix(1, 0, 0, 1, 98, 54)"><g clip-path="url(#e84656f9a0)"><g clip-path="url(#802d71bdbe)"><g><g clip-path="url(#3c53f4b35b)"><g fill="#000000" fill-opacity="1"><g transform="translate(4.491724, 216.330334)"><g><path d="M 91.578125 6.625 C 84.222656 6.625 76.820312 5.289062 69.375 2.625 C 61.925781 -0.0390625 54.707031 -2.9375 47.71875 -6.0625 C 38.894531 -1.46875 29.976562 0.828125 20.96875 0.828125 C 14.15625 0.828125 8.679688 -0.410156 4.546875 -2.890625 C 0.410156 -5.378906 -1.65625 -8.644531 -1.65625 -12.6875 C -1.65625 -15.625 -0.460938 -17.96875 1.921875 -19.71875 C 4.316406 -21.46875 7.445312 -22.34375 11.3125 -22.34375 C 13.882812 -22.34375 16.503906 -21.972656 19.171875 -21.234375 C 21.835938 -20.503906 25.421875 -19.21875 29.921875 -17.375 C 34.429688 -15.539062 40.363281 -12.875 47.71875 -9.375 C 55.257812 -13.050781 62.476562 -17.832031 69.375 -23.71875 C 76.269531 -29.601562 82.9375 -35.671875 89.375 -41.921875 C 81.457031 -39.710938 73.085938 -38.285156 64.265625 -37.640625 C 55.441406 -37.003906 46.25 -37.421875 36.6875 -38.890625 C 35.945312 -38.890625 35.578125 -39.347656 35.578125 -40.265625 C 35.578125 -41.367188 36.039062 -41.921875 36.96875 -41.921875 L 37.234375 -41.921875 C 47.535156 -40.265625 57.46875 -39.941406 67.03125 -40.953125 C 76.59375 -41.972656 85.507812 -43.769531 93.78125 -46.34375 C 96.351562 -48.914062 98.832031 -51.535156 101.21875 -54.203125 C 103.613281 -56.867188 105.914062 -59.394531 108.125 -61.78125 C 115.664062 -69.875 122.46875 -76.816406 128.53125 -82.609375 C 134.601562 -88.398438 139.753906 -91.296875 143.984375 -91.296875 C 147.472656 -91.296875 149.21875 -89.550781 149.21875 -86.0625 C 149.21875 -82.75 146.960938 -78.472656 142.453125 -73.234375 C 137.953125 -67.992188 131.703125 -62.707031 123.703125 -57.375 C 115.703125 -52.039062 106.375 -47.535156 95.71875 -43.859375 C 89.09375 -37.054688 82.054688 -30.390625 74.609375 -23.859375 C 67.160156 -17.328125 59.484375 -11.945312 51.578125 -7.71875 C 58.015625 -4.78125 64.632812 -2.207031 71.4375 0 C 78.238281 2.207031 84.953125 3.3125 91.578125 3.3125 C 97.460938 3.3125 103.941406 1.335938 111.015625 -2.609375 C 118.097656 -6.566406 126.144531 -13.050781 135.15625 -22.0625 C 135.519531 -22.4375 135.890625 -22.625 136.265625 -22.625 C 137.359375 -22.625 137.90625 -22.070312 137.90625 -20.96875 C 137.90625 -20.78125 137.722656 -20.503906 137.359375 -20.140625 C 128.171875 -10.941406 119.851562 -4.179688 112.40625 0.140625 C 104.957031 4.460938 98.015625 6.625 91.578125 6.625 Z M 100.125 -48.546875 C 109.5 -52.222656 117.632812 -56.40625 124.53125 -61.09375 C 131.425781 -65.78125 136.757812 -70.421875 140.53125 -75.015625 C 144.300781 -79.617188 146.1875 -83.300781 146.1875 -86.0625 C 146.1875 -87.34375 145.453125 -87.984375 143.984375 -87.984375 C 140.484375 -87.984375 135.882812 -85.269531 130.1875 -79.84375 C 124.488281 -74.425781 117.867188 -67.671875 110.328125 -59.578125 C 108.859375 -57.742188 107.25 -55.953125 105.5 -54.203125 C 103.757812 -52.453125 101.96875 -50.566406 100.125 -48.546875 Z M 20.96875 -2.484375 C 24.820312 -2.484375 28.679688 -2.941406 32.546875 -3.859375 C 36.410156 -4.773438 40.269531 -6.0625 44.125 -7.71875 C 34.382812 -12.132812 27.257812 -15.125 22.75 -16.6875 C 18.25 -18.25 14.4375 -19.03125 11.3125 -19.03125 C 4.875 -19.03125 1.65625 -16.914062 1.65625 -12.6875 C 1.65625 -9.5625 3.398438 -7.078125 6.890625 -5.234375 C 10.390625 -3.398438 15.082031 -2.484375 20.96875 -2.484375 Z M 20.96875 -2.484375 "/></g></g></g></g></g></g></g></g></g></svg>