<svg xmlns="http://www.w3.org/2000/svg" xmlns:xlink="http://www.w3.org/1999/xlink" width="500" zoomAndPan="magnify" viewBox="0 0 375 374.999991" height="500" preserveAspectRatio="xMidYMid meet" version="1.0"><defs><g/><clipPath id="a0698aff7d"><path d="M 146 0.441406 L 352.601562 0.441406 L 352.601562 178.519531 L 146 178.519531 Z M 146 0.441406 " clip-rule="nonzero"/></clipPath><clipPath id="cb963e17b9"><rect x="0" width="207" y="0" height="179"/></clipPath><clipPath id="65ef06f011"><rect x="0" width="353" y="0" height="179"/></clipPath></defs><g transform="matrix(1, 0, 0, 1, 17, 91)"><g clip-path="url(#65ef06f011)"><g fill="#000000" fill-opacity="1"><g transform="translate(58.32238, 145.954115)"><g><path d="M 3.59375 0 L 0.515625 -10.5625 L 2.296875 -10.5625 L 4.53125 -2.28125 L 7 -10.5625 L 9.03125 -10.5625 L 11.515625 -2.28125 L 13.734375 -10.5625 L 15.546875 -10.5625 L 12.453125 0 L 10.625 0 L 8.03125 -8.703125 L 5.4375 0 Z M 3.59375 0 "/></g></g></g><g fill="#000000" fill-opacity="1"><g transform="translate(74.373881, 145.954115)"><g><path d="M 6.21875 0.25 C 5.207031 0.25 4.3125 0.0195312 3.53125 -0.4375 C 2.75 -0.894531 2.132812 -1.535156 1.6875 -2.359375 C 1.238281 -3.179688 1.015625 -4.15625 1.015625 -5.28125 C 1.015625 -6.382812 1.234375 -7.351562 1.671875 -8.1875 C 2.117188 -9.019531 2.734375 -9.664062 3.515625 -10.125 C 4.304688 -10.582031 5.222656 -10.8125 6.265625 -10.8125 C 7.285156 -10.8125 8.164062 -10.582031 8.90625 -10.125 C 9.65625 -9.664062 10.226562 -9.054688 10.625 -8.296875 C 11.019531 -7.546875 11.21875 -6.738281 11.21875 -5.875 C 11.21875 -5.71875 11.210938 -5.5625 11.203125 -5.40625 C 11.203125 -5.25 11.203125 -5.070312 11.203125 -4.875 L 2.796875 -4.875 C 2.835938 -4.0625 3.023438 -3.390625 3.359375 -2.859375 C 3.691406 -2.328125 4.109375 -1.925781 4.609375 -1.65625 C 5.109375 -1.382812 5.644531 -1.25 6.21875 -1.25 C 6.957031 -1.25 7.570312 -1.421875 8.0625 -1.765625 C 8.5625 -2.109375 8.925781 -2.570312 9.15625 -3.15625 L 10.921875 -3.15625 C 10.640625 -2.175781 10.097656 -1.363281 9.296875 -0.71875 C 8.492188 -0.0703125 7.46875 0.25 6.21875 0.25 Z M 6.21875 -9.3125 C 5.363281 -9.3125 4.601562 -9.050781 3.9375 -8.53125 C 3.28125 -8.007812 2.90625 -7.253906 2.8125 -6.265625 L 9.453125 -6.265625 C 9.410156 -7.210938 9.082031 -7.957031 8.46875 -8.5 C 7.863281 -9.039062 7.113281 -9.3125 6.21875 -9.3125 Z M 6.21875 -9.3125 "/></g></g></g><g fill="#000000" fill-opacity="1"><g transform="translate(86.487016, 145.954115)"><g><path d="M 6.265625 0.25 C 5.210938 0.25 4.289062 0.0078125 3.5 -0.46875 C 2.71875 -0.945312 2.109375 -1.601562 1.671875 -2.4375 C 1.234375 -3.28125 1.015625 -4.234375 1.015625 -5.296875 C 1.015625 -6.367188 1.234375 -7.316406 1.671875 -8.140625 C 2.117188 -8.972656 2.734375 -9.625 3.515625 -10.09375 C 4.296875 -10.570312 5.21875 -10.8125 6.28125 -10.8125 C 7.144531 -10.8125 7.910156 -10.632812 8.578125 -10.28125 C 9.242188 -9.925781 9.765625 -9.429688 10.140625 -8.796875 L 10.140625 -15.328125 L 11.921875 -15.328125 L 11.921875 0 L 10.3125 0 L 10.140625 -1.75 C 9.796875 -1.238281 9.300781 -0.773438 8.65625 -0.359375 C 8.019531 0.046875 7.222656 0.25 6.265625 0.25 Z M 6.453125 -1.296875 C 7.160156 -1.296875 7.785156 -1.460938 8.328125 -1.796875 C 8.878906 -2.128906 9.304688 -2.59375 9.609375 -3.1875 C 9.921875 -3.789062 10.078125 -4.488281 10.078125 -5.28125 C 10.078125 -6.070312 9.921875 -6.765625 9.609375 -7.359375 C 9.304688 -7.960938 8.878906 -8.429688 8.328125 -8.765625 C 7.785156 -9.097656 7.160156 -9.265625 6.453125 -9.265625 C 5.753906 -9.265625 5.128906 -9.097656 4.578125 -8.765625 C 4.035156 -8.429688 3.613281 -7.960938 3.3125 -7.359375 C 3.007812 -6.765625 2.859375 -6.070312 2.859375 -5.28125 C 2.859375 -4.488281 3.007812 -3.789062 3.3125 -3.1875 C 3.613281 -2.59375 4.035156 -2.128906 4.578125 -1.796875 C 5.128906 -1.460938 5.753906 -1.296875 6.453125 -1.296875 Z M 6.453125 -1.296875 "/></g></g></g><g fill="#000000" fill-opacity="1"><g transform="translate(99.856177, 145.954115)"><g><path d="M 6.265625 0.25 C 5.210938 0.25 4.289062 0.0078125 3.5 -0.46875 C 2.71875 -0.945312 2.109375 -1.601562 1.671875 -2.4375 C 1.234375 -3.28125 1.015625 -4.234375 1.015625 -5.296875 C 1.015625 -6.367188 1.234375 -7.316406 1.671875 -8.140625 C 2.117188 -8.972656 2.734375 -9.625 3.515625 -10.09375 C 4.296875 -10.570312 5.21875 -10.8125 6.28125 -10.8125 C 7.144531 -10.8125 7.910156 -10.632812 8.578125 -10.28125 C 9.242188 -9.925781 9.765625 -9.429688 10.140625 -8.796875 L 10.140625 -15.328125 L 11.921875 -15.328125 L 11.921875 0 L 10.3125 0 L 10.140625 -1.75 C 9.796875 -1.238281 9.300781 -0.773438 8.65625 -0.359375 C 8.019531 0.046875 7.222656 0.25 6.265625 0.25 Z M 6.453125 -1.296875 C 7.160156 -1.296875 7.785156 -1.460938 8.328125 -1.796875 C 8.878906 -2.128906 9.304688 -2.59375 9.609375 -3.1875 C 9.921875 -3.789062 10.078125 -4.488281 10.078125 -5.28125 C 10.078125 -6.070312 9.921875 -6.765625 9.609375 -7.359375 C 9.304688 -7.960938 8.878906 -8.429688 8.328125 -8.765625 C 7.785156 -9.097656 7.160156 -9.265625 6.453125 -9.265625 C 5.753906 -9.265625 5.128906 -9.097656 4.578125 -8.765625 C 4.035156 -8.429688 3.613281 -7.960938 3.3125 -7.359375 C 3.007812 -6.765625 2.859375 -6.070312 2.859375 -5.28125 C 2.859375 -4.488281 3.007812 -3.789062 3.3125 -3.1875 C 3.613281 -2.59375 4.035156 -2.128906 4.578125 -1.796875 C 5.128906 -1.460938 5.753906 -1.296875 6.453125 -1.296875 Z M 6.453125 -1.296875 "/></g></g></g><g fill="#000000" fill-opacity="1"><g transform="translate(113.225338, 145.954115)"><g><path d="M 2.5625 -12.90625 C 2.195312 -12.90625 1.898438 -13.019531 1.671875 -13.25 C 1.441406 -13.488281 1.328125 -13.785156 1.328125 -14.140625 C 1.328125 -14.484375 1.441406 -14.765625 1.671875 -14.984375 C 1.898438 -15.210938 2.195312 -15.328125 2.5625 -15.328125 C 2.894531 -15.328125 3.179688 -15.210938 3.421875 -14.984375 C 3.671875 -14.765625 3.796875 -14.484375 3.796875 -14.140625 C 3.796875 -13.785156 3.671875 -13.488281 3.421875 -13.25 C 3.179688 -13.019531 2.894531 -12.90625 2.5625 -12.90625 Z M 1.65625 0 L 1.65625 -10.5625 L 3.453125 -10.5625 L 3.453125 0 Z M 1.65625 0 "/></g></g></g><g fill="#000000" fill-opacity="1"><g transform="translate(118.313277, 145.954115)"><g><path d="M 1.46875 0 L 1.46875 -10.5625 L 3.09375 -10.5625 L 3.1875 -8.671875 C 3.53125 -9.335938 4.019531 -9.859375 4.65625 -10.234375 C 5.300781 -10.617188 6.03125 -10.8125 6.84375 -10.8125 C 8.082031 -10.8125 9.078125 -10.429688 9.828125 -9.671875 C 10.578125 -8.921875 10.953125 -7.753906 10.953125 -6.171875 L 10.953125 0 L 9.15625 0 L 9.15625 -5.984375 C 9.15625 -8.179688 8.25 -9.28125 6.4375 -9.28125 C 5.519531 -9.28125 4.757812 -8.953125 4.15625 -8.296875 C 3.5625 -7.640625 3.265625 -6.695312 3.265625 -5.46875 L 3.265625 0 Z M 1.46875 0 "/></g></g></g><g fill="#000000" fill-opacity="1"><g transform="translate(130.49028, 145.954115)"><g><path d="M 5.640625 -3.328125 C 5.046875 -3.328125 4.5 -3.40625 4 -3.5625 L 2.9375 -2.5625 C 3.09375 -2.445312 3.285156 -2.347656 3.515625 -2.265625 C 3.753906 -2.191406 4.09375 -2.117188 4.53125 -2.046875 C 4.976562 -1.984375 5.597656 -1.921875 6.390625 -1.859375 C 7.804688 -1.753906 8.816406 -1.425781 9.421875 -0.875 C 10.035156 -0.320312 10.34375 0.398438 10.34375 1.296875 C 10.34375 1.910156 10.175781 2.492188 9.84375 3.046875 C 9.507812 3.597656 9 4.050781 8.3125 4.40625 C 7.625 4.757812 6.742188 4.9375 5.671875 4.9375 C 4.710938 4.9375 3.863281 4.8125 3.125 4.5625 C 2.382812 4.320312 1.804688 3.945312 1.390625 3.4375 C 0.984375 2.9375 0.78125 2.300781 0.78125 1.53125 C 0.78125 1.132812 0.882812 0.703125 1.09375 0.234375 C 1.3125 -0.222656 1.710938 -0.65625 2.296875 -1.0625 C 1.984375 -1.1875 1.71875 -1.320312 1.5 -1.46875 C 1.28125 -1.625 1.078125 -1.796875 0.890625 -1.984375 L 0.890625 -2.46875 L 2.703125 -4.265625 C 1.867188 -4.972656 1.453125 -5.910156 1.453125 -7.078125 C 1.453125 -7.765625 1.613281 -8.390625 1.9375 -8.953125 C 2.257812 -9.523438 2.734375 -9.976562 3.359375 -10.3125 C 3.984375 -10.644531 4.742188 -10.8125 5.640625 -10.8125 C 6.253906 -10.8125 6.8125 -10.726562 7.3125 -10.5625 L 11.203125 -10.5625 L 11.203125 -9.21875 L 9.21875 -9.140625 C 9.632812 -8.535156 9.84375 -7.847656 9.84375 -7.078125 C 9.84375 -6.378906 9.675781 -5.742188 9.34375 -5.171875 C 9.007812 -4.609375 8.53125 -4.160156 7.90625 -3.828125 C 7.289062 -3.492188 6.535156 -3.328125 5.640625 -3.328125 Z M 5.640625 -4.796875 C 6.390625 -4.796875 6.988281 -4.988281 7.4375 -5.375 C 7.882812 -5.769531 8.109375 -6.335938 8.109375 -7.078125 C 8.109375 -7.796875 7.882812 -8.347656 7.4375 -8.734375 C 6.988281 -9.128906 6.390625 -9.328125 5.640625 -9.328125 C 4.878906 -9.328125 4.273438 -9.128906 3.828125 -8.734375 C 3.378906 -8.347656 3.15625 -7.796875 3.15625 -7.078125 C 3.15625 -6.335938 3.378906 -5.769531 3.828125 -5.375 C 4.273438 -4.988281 4.878906 -4.796875 5.640625 -4.796875 Z M 2.53125 1.359375 C 2.53125 2.066406 2.828125 2.59375 3.421875 2.9375 C 4.023438 3.289062 4.773438 3.46875 5.671875 3.46875 C 6.546875 3.46875 7.25 3.273438 7.78125 2.890625 C 8.3125 2.515625 8.578125 2.003906 8.578125 1.359375 C 8.578125 0.910156 8.390625 0.519531 8.015625 0.1875 C 7.648438 -0.144531 6.972656 -0.34375 5.984375 -0.40625 C 5.203125 -0.457031 4.53125 -0.53125 3.96875 -0.625 C 3.382812 -0.3125 3 0.0234375 2.8125 0.390625 C 2.625 0.753906 2.53125 1.078125 2.53125 1.359375 Z M 2.53125 1.359375 "/></g></g></g><g fill="#000000" fill-opacity="1"><g transform="translate(142.241509, 145.954115)"><g/></g></g><g fill="#000000" fill-opacity="1"><g transform="translate(147.882959, 145.954115)"><g><path d="M 1.46875 4.6875 L 1.46875 -10.5625 L 3.09375 -10.5625 L 3.265625 -8.8125 C 3.597656 -9.320312 4.082031 -9.78125 4.71875 -10.1875 C 5.351562 -10.601562 6.160156 -10.8125 7.140625 -10.8125 C 8.179688 -10.8125 9.09375 -10.570312 9.875 -10.09375 C 10.65625 -9.613281 11.265625 -8.953125 11.703125 -8.109375 C 12.140625 -7.273438 12.359375 -6.328125 12.359375 -5.265625 C 12.359375 -4.191406 12.140625 -3.238281 11.703125 -2.40625 C 11.265625 -1.582031 10.648438 -0.929688 9.859375 -0.453125 C 9.078125 0.015625 8.160156 0.25 7.109375 0.25 C 6.242188 0.25 5.472656 0.0703125 4.796875 -0.28125 C 4.128906 -0.632812 3.617188 -1.128906 3.265625 -1.765625 L 3.265625 4.6875 Z M 6.921875 -1.296875 C 7.628906 -1.296875 8.253906 -1.460938 8.796875 -1.796875 C 9.335938 -2.128906 9.765625 -2.59375 10.078125 -3.1875 C 10.390625 -3.789062 10.546875 -4.488281 10.546875 -5.28125 C 10.546875 -6.070312 10.390625 -6.765625 10.078125 -7.359375 C 9.765625 -7.960938 9.335938 -8.429688 8.796875 -8.765625 C 8.253906 -9.097656 7.628906 -9.265625 6.921875 -9.265625 C 6.210938 -9.265625 5.585938 -9.097656 5.046875 -8.765625 C 4.503906 -8.429688 4.078125 -7.960938 3.765625 -7.359375 C 3.453125 -6.765625 3.296875 -6.070312 3.296875 -5.28125 C 3.296875 -4.488281 3.453125 -3.789062 3.765625 -3.1875 C 4.078125 -2.59375 4.503906 -2.128906 5.046875 -1.796875 C 5.585938 -1.460938 6.210938 -1.296875 6.921875 -1.296875 Z M 6.921875 -1.296875 "/></g></g></g><g fill="#000000" fill-opacity="1"><g transform="translate(161.252119, 145.954115)"><g><path d="M 1.46875 0 L 1.46875 -15.328125 L 3.265625 -15.328125 L 3.265625 -8.75 C 3.617188 -9.40625 4.117188 -9.910156 4.765625 -10.265625 C 5.421875 -10.628906 6.132812 -10.8125 6.90625 -10.8125 C 8.125 -10.8125 9.101562 -10.429688 9.84375 -9.671875 C 10.582031 -8.921875 10.953125 -7.753906 10.953125 -6.171875 L 10.953125 0 L 9.171875 0 L 9.171875 -5.984375 C 9.171875 -8.179688 8.285156 -9.28125 6.515625 -9.28125 C 5.585938 -9.28125 4.8125 -8.953125 4.1875 -8.296875 C 3.570312 -7.640625 3.265625 -6.695312 3.265625 -5.46875 L 3.265625 0 Z M 1.46875 0 "/></g></g></g><g fill="#000000" fill-opacity="1"><g transform="translate(173.429123, 145.954115)"><g><path d="M 6.28125 0.25 C 5.289062 0.25 4.394531 0.0234375 3.59375 -0.421875 C 2.800781 -0.878906 2.171875 -1.519531 1.703125 -2.34375 C 1.242188 -3.175781 1.015625 -4.15625 1.015625 -5.28125 C 1.015625 -6.40625 1.25 -7.378906 1.71875 -8.203125 C 2.1875 -9.035156 2.820312 -9.675781 3.625 -10.125 C 4.425781 -10.582031 5.328125 -10.8125 6.328125 -10.8125 C 7.316406 -10.8125 8.207031 -10.582031 9 -10.125 C 9.800781 -9.675781 10.429688 -9.035156 10.890625 -8.203125 C 11.347656 -7.378906 11.578125 -6.40625 11.578125 -5.28125 C 11.578125 -4.15625 11.34375 -3.175781 10.875 -2.34375 C 10.414062 -1.519531 9.78125 -0.878906 8.96875 -0.421875 C 8.164062 0.0234375 7.269531 0.25 6.28125 0.25 Z M 6.28125 -1.28125 C 6.894531 -1.28125 7.460938 -1.425781 7.984375 -1.71875 C 8.515625 -2.019531 8.941406 -2.46875 9.265625 -3.0625 C 9.585938 -3.664062 9.75 -4.40625 9.75 -5.28125 C 9.75 -6.164062 9.585938 -6.90625 9.265625 -7.5 C 8.953125 -8.09375 8.53125 -8.535156 8 -8.828125 C 7.476562 -9.128906 6.921875 -9.28125 6.328125 -9.28125 C 5.710938 -9.28125 5.140625 -9.128906 4.609375 -8.828125 C 4.085938 -8.535156 3.664062 -8.09375 3.34375 -7.5 C 3.019531 -6.90625 2.859375 -6.164062 2.859375 -5.28125 C 2.859375 -4.40625 3.019531 -3.664062 3.34375 -3.0625 C 3.664062 -2.46875 4.085938 -2.019531 4.609375 -1.71875 C 5.128906 -1.425781 5.6875 -1.28125 6.28125 -1.28125 Z M 6.28125 -1.28125 "/></g></g></g><g fill="#000000" fill-opacity="1"><g transform="translate(186.031901, 145.954115)"><g><path d="M 5.640625 0 C 4.679688 0 3.921875 -0.234375 3.359375 -0.703125 C 2.804688 -1.171875 2.53125 -2.015625 2.53125 -3.234375 L 2.53125 -9.046875 L 0.703125 -9.046875 L 0.703125 -10.5625 L 2.53125 -10.5625 L 2.765625 -13.09375 L 4.328125 -13.09375 L 4.328125 -10.5625 L 7.4375 -10.5625 L 7.4375 -9.046875 L 4.328125 -9.046875 L 4.328125 -3.234375 C 4.328125 -2.566406 4.457031 -2.113281 4.71875 -1.875 C 4.988281 -1.644531 5.46875 -1.53125 6.15625 -1.53125 L 7.265625 -1.53125 L 7.265625 0 Z M 5.640625 0 "/></g></g></g><g fill="#000000" fill-opacity="1"><g transform="translate(194.270538, 145.954115)"><g><path d="M 6.28125 0.25 C 5.289062 0.25 4.394531 0.0234375 3.59375 -0.421875 C 2.800781 -0.878906 2.171875 -1.519531 1.703125 -2.34375 C 1.242188 -3.175781 1.015625 -4.15625 1.015625 -5.28125 C 1.015625 -6.40625 1.25 -7.378906 1.71875 -8.203125 C 2.1875 -9.035156 2.820312 -9.675781 3.625 -10.125 C 4.425781 -10.582031 5.328125 -10.8125 6.328125 -10.8125 C 7.316406 -10.8125 8.207031 -10.582031 9 -10.125 C 9.800781 -9.675781 10.429688 -9.035156 10.890625 -8.203125 C 11.347656 -7.378906 11.578125 -6.40625 11.578125 -5.28125 C 11.578125 -4.15625 11.34375 -3.175781 10.875 -2.34375 C 10.414062 -1.519531 9.78125 -0.878906 8.96875 -0.421875 C 8.164062 0.0234375 7.269531 0.25 6.28125 0.25 Z M 6.28125 -1.28125 C 6.894531 -1.28125 7.460938 -1.425781 7.984375 -1.71875 C 8.515625 -2.019531 8.941406 -2.46875 9.265625 -3.0625 C 9.585938 -3.664062 9.75 -4.40625 9.75 -5.28125 C 9.75 -6.164062 9.585938 -6.90625 9.265625 -7.5 C 8.953125 -8.09375 8.53125 -8.535156 8 -8.828125 C 7.476562 -9.128906 6.921875 -9.28125 6.328125 -9.28125 C 5.710938 -9.28125 5.140625 -9.128906 4.609375 -8.828125 C 4.085938 -8.535156 3.664062 -8.09375 3.34375 -7.5 C 3.019531 -6.90625 2.859375 -6.164062 2.859375 -5.28125 C 2.859375 -4.40625 3.019531 -3.664062 3.34375 -3.0625 C 3.664062 -2.46875 4.085938 -2.019531 4.609375 -1.71875 C 5.128906 -1.425781 5.6875 -1.28125 6.28125 -1.28125 Z M 6.28125 -1.28125 "/></g></g></g><g fill="#000000" fill-opacity="1"><g transform="translate(206.873317, 145.954115)"><g><path d="M 5.640625 -3.328125 C 5.046875 -3.328125 4.5 -3.40625 4 -3.5625 L 2.9375 -2.5625 C 3.09375 -2.445312 3.285156 -2.347656 3.515625 -2.265625 C 3.753906 -2.191406 4.09375 -2.117188 4.53125 -2.046875 C 4.976562 -1.984375 5.597656 -1.921875 6.390625 -1.859375 C 7.804688 -1.753906 8.816406 -1.425781 9.421875 -0.875 C 10.035156 -0.320312 10.34375 0.398438 10.34375 1.296875 C 10.34375 1.910156 10.175781 2.492188 9.84375 3.046875 C 9.507812 3.597656 9 4.050781 8.3125 4.40625 C 7.625 4.757812 6.742188 4.9375 5.671875 4.9375 C 4.710938 4.9375 3.863281 4.8125 3.125 4.5625 C 2.382812 4.320312 1.804688 3.945312 1.390625 3.4375 C 0.984375 2.9375 0.78125 2.300781 0.78125 1.53125 C 0.78125 1.132812 0.882812 0.703125 1.09375 0.234375 C 1.3125 -0.222656 1.710938 -0.65625 2.296875 -1.0625 C 1.984375 -1.1875 1.71875 -1.320312 1.5 -1.46875 C 1.28125 -1.625 1.078125 -1.796875 0.890625 -1.984375 L 0.890625 -2.46875 L 2.703125 -4.265625 C 1.867188 -4.972656 1.453125 -5.910156 1.453125 -7.078125 C 1.453125 -7.765625 1.613281 -8.390625 1.9375 -8.953125 C 2.257812 -9.523438 2.734375 -9.976562 3.359375 -10.3125 C 3.984375 -10.644531 4.742188 -10.8125 5.640625 -10.8125 C 6.253906 -10.8125 6.8125 -10.726562 7.3125 -10.5625 L 11.203125 -10.5625 L 11.203125 -9.21875 L 9.21875 -9.140625 C 9.632812 -8.535156 9.84375 -7.847656 9.84375 -7.078125 C 9.84375 -6.378906 9.675781 -5.742188 9.34375 -5.171875 C 9.007812 -4.609375 8.53125 -4.160156 7.90625 -3.828125 C 7.289062 -3.492188 6.535156 -3.328125 5.640625 -3.328125 Z M 5.640625 -4.796875 C 6.390625 -4.796875 6.988281 -4.988281 7.4375 -5.375 C 7.882812 -5.769531 8.109375 -6.335938 8.109375 -7.078125 C 8.109375 -7.796875 7.882812 -8.347656 7.4375 -8.734375 C 6.988281 -9.128906 6.390625 -9.328125 5.640625 -9.328125 C 4.878906 -9.328125 4.273438 -9.128906 3.828125 -8.734375 C 3.378906 -8.347656 3.15625 -7.796875 3.15625 -7.078125 C 3.15625 -6.335938 3.378906 -5.769531 3.828125 -5.375 C 4.273438 -4.988281 4.878906 -4.796875 5.640625 -4.796875 Z M 2.53125 1.359375 C 2.53125 2.066406 2.828125 2.59375 3.421875 2.9375 C 4.023438 3.289062 4.773438 3.46875 5.671875 3.46875 C 6.546875 3.46875 7.25 3.273438 7.78125 2.890625 C 8.3125 2.515625 8.578125 2.003906 8.578125 1.359375 C 8.578125 0.910156 8.390625 0.519531 8.015625 0.1875 C 7.648438 -0.144531 6.972656 -0.34375 5.984375 -0.40625 C 5.203125 -0.457031 4.53125 -0.53125 3.96875 -0.625 C 3.382812 -0.3125 3 0.0234375 2.8125 0.390625 C 2.625 0.753906 2.53125 1.078125 2.53125 1.359375 Z M 2.53125 1.359375 "/></g></g></g><g fill="#000000" fill-opacity="1"><g transform="translate(218.624545, 145.954115)"><g><path d="M 1.46875 0 L 1.46875 -10.5625 L 3.09375 -10.5625 L 3.234375 -8.546875 C 3.566406 -9.234375 4.066406 -9.78125 4.734375 -10.1875 C 5.398438 -10.601562 6.222656 -10.8125 7.203125 -10.8125 L 7.203125 -8.9375 L 6.703125 -8.9375 C 6.078125 -8.9375 5.503906 -8.828125 4.984375 -8.609375 C 4.460938 -8.390625 4.046875 -8.015625 3.734375 -7.484375 C 3.421875 -6.960938 3.265625 -6.242188 3.265625 -5.328125 L 3.265625 0 Z M 1.46875 0 "/></g></g></g><g fill="#000000" fill-opacity="1"><g transform="translate(226.352255, 145.954115)"><g><path d="M 4.984375 0.25 C 4.097656 0.25 3.363281 0.101562 2.78125 -0.1875 C 2.207031 -0.488281 1.773438 -0.882812 1.484375 -1.375 C 1.203125 -1.875 1.0625 -2.414062 1.0625 -3 C 1.0625 -4.082031 1.472656 -4.914062 2.296875 -5.5 C 3.117188 -6.082031 4.242188 -6.375 5.671875 -6.375 L 8.515625 -6.375 L 8.515625 -6.5 C 8.515625 -7.414062 8.273438 -8.113281 7.796875 -8.59375 C 7.316406 -9.070312 6.671875 -9.3125 5.859375 -9.3125 C 5.160156 -9.3125 4.554688 -9.132812 4.046875 -8.78125 C 3.546875 -8.4375 3.234375 -7.929688 3.109375 -7.265625 L 1.28125 -7.265625 C 1.351562 -8.023438 1.609375 -8.664062 2.046875 -9.1875 C 2.492188 -9.71875 3.050781 -10.117188 3.71875 -10.390625 C 4.394531 -10.671875 5.109375 -10.8125 5.859375 -10.8125 C 7.335938 -10.8125 8.445312 -10.414062 9.1875 -9.625 C 9.9375 -8.84375 10.3125 -7.800781 10.3125 -6.5 L 10.3125 0 L 8.703125 0 L 8.609375 -1.890625 C 8.304688 -1.296875 7.867188 -0.789062 7.296875 -0.375 C 6.722656 0.0390625 5.953125 0.25 4.984375 0.25 Z M 5.265625 -1.25 C 5.941406 -1.25 6.523438 -1.425781 7.015625 -1.78125 C 7.503906 -2.144531 7.875 -2.609375 8.125 -3.171875 C 8.382812 -3.742188 8.515625 -4.34375 8.515625 -4.96875 L 8.515625 -4.984375 L 5.8125 -4.984375 C 4.757812 -4.984375 4.015625 -4.800781 3.578125 -4.4375 C 3.148438 -4.070312 2.9375 -3.625 2.9375 -3.09375 C 2.9375 -2.53125 3.140625 -2.082031 3.546875 -1.75 C 3.953125 -1.414062 4.523438 -1.25 5.265625 -1.25 Z M 5.265625 -1.25 "/></g></g></g><g fill="#000000" fill-opacity="1"><g transform="translate(237.869312, 145.954115)"><g><path d="M 1.46875 4.6875 L 1.46875 -10.5625 L 3.09375 -10.5625 L 3.265625 -8.8125 C 3.597656 -9.320312 4.082031 -9.78125 4.71875 -10.1875 C 5.351562 -10.601562 6.160156 -10.8125 7.140625 -10.8125 C 8.179688 -10.8125 9.09375 -10.570312 9.875 -10.09375 C 10.65625 -9.613281 11.265625 -8.953125 11.703125 -8.109375 C 12.140625 -7.273438 12.359375 -6.328125 12.359375 -5.265625 C 12.359375 -4.191406 12.140625 -3.238281 11.703125 -2.40625 C 11.265625 -1.582031 10.648438 -0.929688 9.859375 -0.453125 C 9.078125 0.015625 8.160156 0.25 7.109375 0.25 C 6.242188 0.25 5.472656 0.0703125 4.796875 -0.28125 C 4.128906 -0.632812 3.617188 -1.128906 3.265625 -1.765625 L 3.265625 4.6875 Z M 6.921875 -1.296875 C 7.628906 -1.296875 8.253906 -1.460938 8.796875 -1.796875 C 9.335938 -2.128906 9.765625 -2.59375 10.078125 -3.1875 C 10.390625 -3.789062 10.546875 -4.488281 10.546875 -5.28125 C 10.546875 -6.070312 10.390625 -6.765625 10.078125 -7.359375 C 9.765625 -7.960938 9.335938 -8.429688 8.796875 -8.765625 C 8.253906 -9.097656 7.628906 -9.265625 6.921875 -9.265625 C 6.210938 -9.265625 5.585938 -9.097656 5.046875 -8.765625 C 4.503906 -8.429688 4.078125 -7.960938 3.765625 -7.359375 C 3.453125 -6.765625 3.296875 -6.070312 3.296875 -5.28125 C 3.296875 -4.488281 3.453125 -3.789062 3.765625 -3.1875 C 4.078125 -2.59375 4.503906 -2.128906 5.046875 -1.796875 C 5.585938 -1.460938 6.210938 -1.296875 6.921875 -1.296875 Z M 6.921875 -1.296875 "/></g></g></g><g fill="#000000" fill-opacity="1"><g transform="translate(251.238473, 145.954115)"><g><path d="M 1.46875 0 L 1.46875 -15.328125 L 3.265625 -15.328125 L 3.265625 -8.75 C 3.617188 -9.40625 4.117188 -9.910156 4.765625 -10.265625 C 5.421875 -10.628906 6.132812 -10.8125 6.90625 -10.8125 C 8.125 -10.8125 9.101562 -10.429688 9.84375 -9.671875 C 10.582031 -8.921875 10.953125 -7.753906 10.953125 -6.171875 L 10.953125 0 L 9.171875 0 L 9.171875 -5.984375 C 9.171875 -8.179688 8.285156 -9.28125 6.515625 -9.28125 C 5.585938 -9.28125 4.8125 -8.953125 4.1875 -8.296875 C 3.570312 -7.640625 3.265625 -6.695312 3.265625 -5.46875 L 3.265625 0 Z M 1.46875 0 "/></g></g></g><g fill="#000000" fill-opacity="1"><g transform="translate(263.415476, 145.954115)"><g><path d="M 2.625 4.6875 L 5.234375 -1.015625 L 4.625 -1.015625 L 0.421875 -10.5625 L 2.359375 -10.5625 L 5.859375 -2.34375 L 9.5625 -10.5625 L 11.421875 -10.5625 L 4.5 4.6875 Z M 2.625 4.6875 "/></g></g></g><g clip-path="url(#a0698aff7d)"><g transform="matrix(1, 0, 0, 1, 146, 0)"><g clip-path="url(#cb963e17b9)"><g fill="#000000" fill-opacity="1"><g transform="translate(2.562463, 117.423345)"><g><path d="M 49.171875 3.546875 C 45.222656 3.546875 41.25 2.832031 37.25 1.40625 C 33.25 -0.0195312 29.375 -1.578125 25.625 -3.265625 C 20.882812 -0.796875 16.09375 0.4375 11.25 0.4375 C 7.601562 0.4375 4.664062 -0.222656 2.4375 -1.546875 C 0.21875 -2.878906 -0.890625 -4.632812 -0.890625 -6.8125 C -0.890625 -8.394531 -0.25 -9.65625 1.03125 -10.59375 C 2.320312 -11.53125 4.003906 -12 6.078125 -12 C 7.453125 -12 8.851562 -11.800781 10.28125 -11.40625 C 11.71875 -11.007812 13.644531 -10.316406 16.0625 -9.328125 C 18.488281 -8.335938 21.675781 -6.90625 25.625 -5.03125 C 29.664062 -7.007812 33.535156 -9.578125 37.234375 -12.734375 C 40.941406 -15.890625 44.523438 -19.148438 47.984375 -22.515625 C 43.734375 -21.328125 39.238281 -20.5625 34.5 -20.21875 C 29.757812 -19.875 24.828125 -20.09375 19.703125 -20.875 C 19.304688 -20.875 19.109375 -21.125 19.109375 -21.625 C 19.109375 -22.21875 19.351562 -22.515625 19.84375 -22.515625 L 20 -22.515625 C 25.519531 -21.617188 30.847656 -21.441406 35.984375 -21.984375 C 41.117188 -22.535156 45.910156 -23.5 50.359375 -24.875 C 51.734375 -26.257812 53.0625 -27.664062 54.34375 -29.09375 C 55.632812 -30.53125 56.867188 -31.890625 58.046875 -33.171875 C 62.097656 -37.515625 65.753906 -41.238281 69.015625 -44.34375 C 72.273438 -47.457031 75.039062 -49.015625 77.3125 -49.015625 C 79.1875 -49.015625 80.125 -48.078125 80.125 -46.203125 C 80.125 -44.429688 78.910156 -42.132812 76.484375 -39.3125 C 74.066406 -36.5 70.710938 -33.660156 66.421875 -30.796875 C 62.128906 -27.941406 57.117188 -25.523438 51.390625 -23.546875 C 47.835938 -19.890625 44.0625 -16.304688 40.0625 -12.796875 C 36.0625 -9.296875 31.9375 -6.410156 27.6875 -4.140625 C 31.144531 -2.566406 34.695312 -1.1875 38.34375 0 C 42 1.1875 45.609375 1.78125 49.171875 1.78125 C 52.328125 1.78125 55.804688 0.71875 59.609375 -1.40625 C 63.410156 -3.53125 67.726562 -7.007812 72.5625 -11.84375 C 72.757812 -12.039062 72.957031 -12.140625 73.15625 -12.140625 C 73.75 -12.140625 74.046875 -11.84375 74.046875 -11.25 C 74.046875 -11.15625 73.945312 -11.007812 73.75 -10.8125 C 68.8125 -5.875 64.34375 -2.25 60.34375 0.0625 C 56.34375 2.382812 52.617188 3.546875 49.171875 3.546875 Z M 53.765625 -26.0625 C 58.796875 -28.039062 63.160156 -30.285156 66.859375 -32.796875 C 70.566406 -35.316406 73.429688 -37.8125 75.453125 -40.28125 C 77.472656 -42.75 78.484375 -44.722656 78.484375 -46.203125 C 78.484375 -46.890625 78.09375 -47.234375 77.3125 -47.234375 C 75.425781 -47.234375 72.953125 -45.773438 69.890625 -42.859375 C 66.835938 -39.953125 63.285156 -36.328125 59.234375 -31.984375 C 58.441406 -30.992188 57.578125 -30.03125 56.640625 -29.09375 C 55.703125 -28.15625 54.742188 -27.144531 53.765625 -26.0625 Z M 11.25 -1.328125 C 13.320312 -1.328125 15.394531 -1.570312 17.46875 -2.0625 C 19.539062 -2.5625 21.613281 -3.253906 23.6875 -4.140625 C 18.457031 -6.515625 14.632812 -8.117188 12.21875 -8.953125 C 9.800781 -9.796875 7.753906 -10.21875 6.078125 -10.21875 C 2.617188 -10.21875 0.890625 -9.082031 0.890625 -6.8125 C 0.890625 -5.132812 1.828125 -3.800781 3.703125 -2.8125 C 5.578125 -1.820312 8.09375 -1.328125 11.25 -1.328125 Z M 11.25 -1.328125 "/></g></g></g><g fill="#000000" fill-opacity="1"><g transform="translate(73.05369, 117.423345)"><g><path d="M 17.46875 0 C 13.914062 0 12.140625 -1.476562 12.140625 -4.4375 C 12.140625 -5.332031 12.335938 -6.25 12.734375 -7.1875 C 13.128906 -8.125 13.625 -9.085938 14.21875 -10.078125 C 14.707031 -10.859375 14.953125 -11.296875 14.953125 -11.390625 C 14.953125 -11.492188 14.507812 -11.203125 13.625 -10.515625 C 9.675781 -7.253906 6.539062 -4.882812 4.21875 -3.40625 C 1.894531 -1.925781 0.144531 -1.1875 -1.03125 -1.1875 C -2.519531 -1.1875 -3.265625 -1.925781 -3.265625 -3.40625 C -3.265625 -6.070312 -0.398438 -9.972656 5.328125 -15.109375 C 5.523438 -15.304688 5.722656 -15.40625 5.921875 -15.40625 C 6.515625 -15.40625 6.8125 -15.109375 6.8125 -14.515625 C 6.8125 -14.316406 6.710938 -14.117188 6.515625 -13.921875 C 1.179688 -9.179688 -1.484375 -5.722656 -1.484375 -3.546875 C -1.484375 -3.054688 -1.332031 -2.8125 -1.03125 -2.8125 C 0.539062 -2.8125 5.082031 -5.820312 12.59375 -11.84375 C 17.132812 -15.5 19.648438 -17.328125 20.140625 -17.328125 C 21.222656 -17.328125 21.539062 -16.929688 21.09375 -16.140625 C 20.65625 -15.347656 20.039062 -14.457031 19.25 -13.46875 C 18.164062 -12.1875 16.976562 -10.707031 15.6875 -9.03125 C 14.40625 -7.351562 13.765625 -5.820312 13.765625 -4.4375 C 13.765625 -2.5625 15 -1.625 17.46875 -1.625 C 19.050781 -1.625 21.394531 -2.191406 24.5 -3.328125 C 27.613281 -4.460938 30.921875 -5.894531 34.421875 -7.625 C 37.929688 -9.351562 40.972656 -11.109375 43.546875 -12.890625 C 43.640625 -12.984375 43.832031 -13.03125 44.125 -13.03125 C 44.625 -13.03125 44.875 -12.734375 44.875 -12.140625 C 44.875 -11.941406 44.773438 -11.742188 44.578125 -11.546875 C 42.109375 -9.773438 39.070312 -8 35.46875 -6.21875 C 31.863281 -4.4375 28.40625 -2.953125 25.09375 -1.765625 C 21.789062 -0.585938 19.25 0 17.46875 0 Z M 17.46875 0 "/></g></g></g><g fill="#000000" fill-opacity="1"><g transform="translate(113.77866, 117.423345)"><g><path d="M -4.140625 0 C -5.128906 0 -5.523438 -0.539062 -5.328125 -1.625 C -5.234375 -2.125 -4.617188 -3.1875 -3.484375 -4.8125 C -2.347656 -6.4375 -0.894531 -8.3125 0.875 -10.4375 C 2.65625 -12.5625 4.609375 -14.734375 6.734375 -16.953125 C 8.859375 -19.171875 11.007812 -21.070312 13.1875 -22.65625 C 13.28125 -22.757812 13.472656 -22.8125 13.765625 -22.8125 C 14.265625 -22.8125 14.515625 -22.5625 14.515625 -22.0625 C 14.515625 -21.769531 14.414062 -21.523438 14.21875 -21.328125 C 11.257812 -19.148438 8.347656 -16.429688 5.484375 -13.171875 C 2.617188 -9.921875 0.347656 -7.160156 -1.328125 -4.890625 C -1.429688 -4.691406 -1.457031 -4.492188 -1.40625 -4.296875 C -1.351562 -4.097656 -1.128906 -4.097656 -0.734375 -4.296875 C 10.710938 -12.585938 18.210938 -16.734375 21.765625 -16.734375 C 23.347656 -16.734375 24.140625 -16.039062 24.140625 -14.65625 C 24.140625 -13.96875 24.015625 -13.078125 23.765625 -11.984375 C 23.523438 -10.898438 23.304688 -9.816406 23.109375 -8.734375 C 22.515625 -6.859375 22.21875 -5.425781 22.21875 -4.4375 C 22.21875 -3.65625 22.757812 -3.265625 23.84375 -3.265625 C 26.3125 -3.265625 29.617188 -4.125 33.765625 -5.84375 C 37.910156 -7.570312 42.207031 -9.921875 46.65625 -12.890625 L 47.09375 -12.890625 C 47.6875 -12.890625 47.984375 -12.640625 47.984375 -12.140625 C 47.984375 -11.847656 47.832031 -11.601562 47.53125 -11.40625 C 42.988281 -8.4375 38.570312 -6.0625 34.28125 -4.28125 C 29.988281 -2.507812 26.507812 -1.625 23.84375 -1.625 C 21.570312 -1.625 20.4375 -2.5625 20.4375 -4.4375 C 20.4375 -4.9375 20.535156 -5.601562 20.734375 -6.4375 C 20.929688 -7.28125 21.128906 -8.195312 21.328125 -9.1875 C 21.617188 -10.269531 21.890625 -11.300781 22.140625 -12.28125 C 22.390625 -13.269531 22.515625 -13.960938 22.515625 -14.359375 C 22.515625 -14.859375 22.265625 -15.109375 21.765625 -15.109375 C 20.191406 -15.109375 18.019531 -14.34375 15.25 -12.8125 C 12.488281 -11.28125 9.675781 -9.5 6.8125 -7.46875 C 3.945312 -5.445312 1.53125 -3.75 -0.4375 -2.375 C -1.332031 -1.78125 -2.097656 -1.234375 -2.734375 -0.734375 C -3.378906 -0.242188 -3.847656 0 -4.140625 0 Z M -4.140625 0 "/></g></g></g><g fill="#000000" fill-opacity="1"><g transform="translate(157.465456, 117.423345)"><g><path d="M 20 0.140625 C 16.4375 0.140625 14.65625 -1.335938 14.65625 -4.296875 C 14.65625 -5.773438 15.050781 -7.300781 15.84375 -8.875 C 16.632812 -10.457031 17.472656 -11.894531 18.359375 -13.1875 C 18.554688 -13.375 18.601562 -13.515625 18.5 -13.609375 C 18.40625 -13.710938 18.257812 -13.664062 18.0625 -13.46875 C 17.375 -13.082031 16.390625 -12.394531 15.109375 -11.40625 C 13.035156 -9.925781 10.738281 -8.320312 8.21875 -6.59375 C 5.695312 -4.863281 3.300781 -3.351562 1.03125 -2.0625 C -1.238281 -0.78125 -3.0625 -0.140625 -4.4375 -0.140625 C -6.21875 -0.140625 -7.109375 -0.929688 -7.109375 -2.515625 C -7.109375 -3.796875 -6.414062 -5.203125 -5.03125 -6.734375 C -3.65625 -8.265625 -1.929688 -9.722656 0.140625 -11.109375 C 2.222656 -12.492188 4.273438 -13.628906 6.296875 -14.515625 C 8.316406 -15.398438 9.96875 -15.84375 11.25 -15.84375 C 13.226562 -15.84375 14.613281 -15.101562 15.40625 -13.625 C 18.5625 -15.988281 20.4375 -17.171875 21.03125 -17.171875 C 21.71875 -17.171875 22.0625 -16.828125 22.0625 -16.140625 C 22.0625 -15.742188 21.519531 -14.757812 20.4375 -13.1875 C 19.550781 -11.894531 18.640625 -10.4375 17.703125 -8.8125 C 16.765625 -7.1875 16.296875 -5.679688 16.296875 -4.296875 C 16.296875 -2.515625 17.53125 -1.625 20 -1.625 C 21.570312 -1.625 23.890625 -2.117188 26.953125 -3.109375 C 30.015625 -4.097656 33.269531 -5.429688 36.71875 -7.109375 C 40.175781 -8.785156 43.289062 -10.660156 46.0625 -12.734375 C 46.15625 -12.835938 46.351562 -12.890625 46.65625 -12.890625 C 47.144531 -12.890625 47.390625 -12.640625 47.390625 -12.140625 C 47.390625 -11.847656 47.289062 -11.601562 47.09375 -11.40625 C 44.332031 -9.425781 41.171875 -7.546875 37.609375 -5.765625 C 34.054688 -3.992188 30.675781 -2.566406 27.46875 -1.484375 C 24.257812 -0.398438 21.769531 0.140625 20 0.140625 Z M -4.4375 -1.921875 C -3.257812 -1.921875 -1.609375 -2.515625 0.515625 -3.703125 C 2.640625 -4.890625 4.910156 -6.320312 7.328125 -8 C 9.742188 -9.675781 11.941406 -11.253906 13.921875 -12.734375 C 13.429688 -13.722656 12.539062 -14.21875 11.25 -14.21875 C 9.96875 -14.21875 8.390625 -13.796875 6.515625 -12.953125 C 4.640625 -12.117188 2.785156 -11.035156 0.953125 -9.703125 C -0.867188 -8.367188 -2.394531 -7.054688 -3.625 -5.765625 C -4.863281 -4.484375 -5.484375 -3.398438 -5.484375 -2.515625 C -5.484375 -2.117188 -5.132812 -1.921875 -4.4375 -1.921875 Z M -4.4375 -1.921875 "/></g></g></g></g></g></g><g fill="#000000" fill-opacity="1"><g transform="translate(0.895575, 116.309318)"><g><path d="M 10.359375 8.734375 C 7.109375 8.734375 4.640625 8.066406 2.953125 6.734375 C 1.273438 5.398438 0.632812 3.648438 1.03125 1.484375 C 1.53125 -0.984375 3.304688 -3.648438 6.359375 -6.515625 C 9.421875 -9.378906 13.472656 -11.796875 18.515625 -13.765625 C 20.878906 -16.828125 23.441406 -20.0625 26.203125 -23.46875 C 28.972656 -26.875 31.738281 -30.128906 34.5 -33.234375 C 37.269531 -36.347656 39.835938 -38.992188 42.203125 -41.171875 C 42.398438 -41.367188 42.597656 -41.46875 42.796875 -41.46875 C 43.390625 -41.46875 43.6875 -41.171875 43.6875 -40.578125 C 43.6875 -40.378906 43.585938 -40.179688 43.390625 -39.984375 C 40.128906 -36.921875 36.523438 -33.046875 32.578125 -28.359375 C 28.628906 -23.671875 24.925781 -19.15625 21.46875 -14.8125 C 23.84375 -15.601562 26.382812 -16.191406 29.09375 -16.578125 C 31.8125 -16.972656 34.703125 -17.171875 37.765625 -17.171875 C 39.441406 -17.171875 41.09375 -17.117188 42.71875 -17.015625 C 44.351562 -16.921875 45.957031 -16.726562 47.53125 -16.4375 C 48.03125 -16.238281 48.28125 -15.941406 48.28125 -15.546875 C 48.28125 -14.953125 47.984375 -14.65625 47.390625 -14.65625 L 47.234375 -14.65625 C 44.179688 -15.25 41.023438 -15.546875 37.765625 -15.546875 C 34.410156 -15.546875 31.203125 -15.273438 28.140625 -14.734375 C 25.078125 -14.191406 22.265625 -13.425781 19.703125 -12.4375 C 17.429688 -9.476562 15.476562 -6.835938 13.84375 -4.515625 C 12.21875 -2.191406 11.15625 -0.539062 10.65625 0.4375 C 10.363281 0.738281 10.117188 0.890625 9.921875 0.890625 C 9.328125 0.890625 9.03125 0.59375 9.03125 0 C 9.03125 -0.195312 9.082031 -0.34375 9.1875 -0.4375 C 9.675781 -1.226562 10.5625 -2.585938 11.84375 -4.515625 C 13.125 -6.441406 14.707031 -8.640625 16.59375 -11.109375 C 12.539062 -9.234375 9.304688 -7.109375 6.890625 -4.734375 C 4.472656 -2.367188 3.066406 -0.195312 2.671875 1.78125 C 2.078125 5.226562 4.640625 6.953125 10.359375 6.953125 C 15.691406 6.953125 21.171875 5.671875 26.796875 3.109375 C 32.429688 0.546875 37.738281 -2.878906 42.71875 -7.171875 C 47.707031 -11.472656 51.929688 -16.265625 55.390625 -21.546875 C 58.847656 -26.828125 61.019531 -32.179688 61.90625 -37.609375 C 62.59375 -40.972656 62.019531 -43.59375 60.1875 -45.46875 C 58.363281 -47.34375 55.578125 -48.28125 51.828125 -48.28125 C 47.390625 -48.28125 42.945312 -47.441406 38.5 -45.765625 C 34.0625 -44.085938 29.867188 -41.9375 25.921875 -39.3125 C 21.972656 -36.695312 18.414062 -33.882812 15.25 -30.875 C 12.09375 -27.863281 9.625 -25.023438 7.84375 -22.359375 C 7.75 -22.066406 7.503906 -21.921875 7.109375 -21.921875 C 6.515625 -21.921875 6.21875 -22.21875 6.21875 -22.8125 C 6.21875 -22.90625 6.242188 -23 6.296875 -23.09375 C 6.347656 -23.195312 6.375 -23.25 6.375 -23.25 C 8.25 -25.914062 10.789062 -28.800781 14 -31.90625 C 17.207031 -35.019531 20.859375 -37.929688 24.953125 -40.640625 C 29.046875 -43.359375 33.410156 -45.582031 38.046875 -47.3125 C 42.691406 -49.039062 47.285156 -49.90625 51.828125 -49.90625 C 56.171875 -49.90625 59.40625 -48.796875 61.53125 -46.578125 C 63.65625 -44.359375 64.375 -41.269531 63.6875 -37.3125 C 62.695312 -31.6875 60.421875 -26.160156 56.859375 -20.734375 C 53.304688 -15.304688 48.960938 -10.367188 43.828125 -5.921875 C 38.703125 -1.484375 33.222656 2.066406 27.390625 4.734375 C 21.566406 7.398438 15.890625 8.734375 10.359375 8.734375 Z M 10.359375 8.734375 "/></g></g></g><g fill="#000000" fill-opacity="1"><g transform="translate(62.499073, 116.309318)"><g><path d="M 20 0.140625 C 16.4375 0.140625 14.65625 -1.335938 14.65625 -4.296875 C 14.65625 -5.773438 15.050781 -7.300781 15.84375 -8.875 C 16.632812 -10.457031 17.472656 -11.894531 18.359375 -13.1875 C 18.554688 -13.375 18.601562 -13.515625 18.5 -13.609375 C 18.40625 -13.710938 18.257812 -13.664062 18.0625 -13.46875 C 17.375 -13.082031 16.390625 -12.394531 15.109375 -11.40625 C 13.035156 -9.925781 10.738281 -8.320312 8.21875 -6.59375 C 5.695312 -4.863281 3.300781 -3.351562 1.03125 -2.0625 C -1.238281 -0.78125 -3.0625 -0.140625 -4.4375 -0.140625 C -6.21875 -0.140625 -7.109375 -0.929688 -7.109375 -2.515625 C -7.109375 -3.796875 -6.414062 -5.203125 -5.03125 -6.734375 C -3.65625 -8.265625 -1.929688 -9.722656 0.140625 -11.109375 C 2.222656 -12.492188 4.273438 -13.628906 6.296875 -14.515625 C 8.316406 -15.398438 9.96875 -15.84375 11.25 -15.84375 C 13.226562 -15.84375 14.613281 -15.101562 15.40625 -13.625 C 18.5625 -15.988281 20.4375 -17.171875 21.03125 -17.171875 C 21.71875 -17.171875 22.0625 -16.828125 22.0625 -16.140625 C 22.0625 -15.742188 21.519531 -14.757812 20.4375 -13.1875 C 19.550781 -11.894531 18.640625 -10.4375 17.703125 -8.8125 C 16.765625 -7.1875 16.296875 -5.679688 16.296875 -4.296875 C 16.296875 -2.515625 17.53125 -1.625 20 -1.625 C 21.570312 -1.625 23.890625 -2.117188 26.953125 -3.109375 C 30.015625 -4.097656 33.269531 -5.429688 36.71875 -7.109375 C 40.175781 -8.785156 43.289062 -10.660156 46.0625 -12.734375 C 46.15625 -12.835938 46.351562 -12.890625 46.65625 -12.890625 C 47.144531 -12.890625 47.390625 -12.640625 47.390625 -12.140625 C 47.390625 -11.847656 47.289062 -11.601562 47.09375 -11.40625 C 44.332031 -9.425781 41.171875 -7.546875 37.609375 -5.765625 C 34.054688 -3.992188 30.675781 -2.566406 27.46875 -1.484375 C 24.257812 -0.398438 21.769531 0.140625 20 0.140625 Z M -4.4375 -1.921875 C -3.257812 -1.921875 -1.609375 -2.515625 0.515625 -3.703125 C 2.640625 -4.890625 4.910156 -6.320312 7.328125 -8 C 9.742188 -9.675781 11.941406 -11.253906 13.921875 -12.734375 C 13.429688 -13.722656 12.539062 -14.21875 11.25 -14.21875 C 9.96875 -14.21875 8.390625 -13.796875 6.515625 -12.953125 C 4.640625 -12.117188 2.785156 -11.035156 0.953125 -9.703125 C -0.867188 -8.367188 -2.394531 -7.054688 -3.625 -5.765625 C -4.863281 -4.484375 -5.484375 -3.398438 -5.484375 -2.515625 C -5.484375 -2.117188 -5.132812 -1.921875 -4.4375 -1.921875 Z M -4.4375 -1.921875 "/></g></g></g><g fill="#000000" fill-opacity="1"><g transform="translate(105.739989, 116.309318)"><g><path d="M -4.140625 0 C -5.128906 0 -5.523438 -0.539062 -5.328125 -1.625 C -5.234375 -2.125 -4.617188 -3.1875 -3.484375 -4.8125 C -2.347656 -6.4375 -0.894531 -8.3125 0.875 -10.4375 C 2.65625 -12.5625 4.609375 -14.734375 6.734375 -16.953125 C 8.859375 -19.171875 11.007812 -21.070312 13.1875 -22.65625 C 13.28125 -22.757812 13.472656 -22.8125 13.765625 -22.8125 C 14.265625 -22.8125 14.515625 -22.5625 14.515625 -22.0625 C 14.515625 -21.769531 14.414062 -21.523438 14.21875 -21.328125 C 11.257812 -19.148438 8.347656 -16.429688 5.484375 -13.171875 C 2.617188 -9.921875 0.347656 -7.160156 -1.328125 -4.890625 C -1.429688 -4.691406 -1.457031 -4.492188 -1.40625 -4.296875 C -1.351562 -4.097656 -1.128906 -4.097656 -0.734375 -4.296875 C 10.710938 -12.585938 18.210938 -16.734375 21.765625 -16.734375 C 23.347656 -16.734375 24.140625 -16.039062 24.140625 -14.65625 C 24.140625 -13.96875 24.015625 -13.078125 23.765625 -11.984375 C 23.523438 -10.898438 23.304688 -9.816406 23.109375 -8.734375 C 22.515625 -6.859375 22.21875 -5.425781 22.21875 -4.4375 C 22.21875 -3.65625 22.757812 -3.265625 23.84375 -3.265625 C 26.3125 -3.265625 29.617188 -4.125 33.765625 -5.84375 C 37.910156 -7.570312 42.207031 -9.921875 46.65625 -12.890625 L 47.09375 -12.890625 C 47.6875 -12.890625 47.984375 -12.640625 47.984375 -12.140625 C 47.984375 -11.847656 47.832031 -11.601562 47.53125 -11.40625 C 42.988281 -8.4375 38.570312 -6.0625 34.28125 -4.28125 C 29.988281 -2.507812 26.507812 -1.625 23.84375 -1.625 C 21.570312 -1.625 20.4375 -2.5625 20.4375 -4.4375 C 20.4375 -4.9375 20.535156 -5.601562 20.734375 -6.4375 C 20.929688 -7.28125 21.128906 -8.195312 21.328125 -9.1875 C 21.617188 -10.269531 21.890625 -11.300781 22.140625 -12.28125 C 22.390625 -13.269531 22.515625 -13.960938 22.515625 -14.359375 C 22.515625 -14.859375 22.265625 -15.109375 21.765625 -15.109375 C 20.191406 -15.109375 18.019531 -14.34375 15.25 -12.8125 C 12.488281 -11.28125 9.675781 -9.5 6.8125 -7.46875 C 3.945312 -5.445312 1.53125 -3.75 -0.4375 -2.375 C -1.332031 -1.78125 -2.097656 -1.234375 -2.734375 -0.734375 C -3.378906 -0.242188 -3.847656 0 -4.140625 0 Z M -4.140625 0 "/></g></g></g><g fill="#000000" fill-opacity="1"><g transform="translate(149.439855, 116.309318)"><g/></g></g></g></g></svg>